<svg width="247" height="76" viewBox="0 0 247 76" fill="none" xmlns="http://www.w3.org/2000/svg">
<path d="M121.837 49.8022L96.0349 23.6555L87.1667 14.7505L78.6124 23.4101L51.8696 50.1529L61.5037 59.787L86.5408 34.5713L111.995 60.0253L121.837 49.8022Z" fill="white"/>
<path d="M33.8109 59.6785C30.5852 56.4528 27.3768 53.2445 24.1569 50.0248C35.9441 38.2318 47.7256 26.4502 59.5186 14.6572L69.1728 24.3113C57.3852 36.0984 45.6041 47.88 33.8109 59.6731V59.6785ZM53.437 38.1797L50.3096 35.0523L49.6679 35.694C50.714 36.74 51.7546 37.7807 52.7953 38.8214L53.437 38.1797ZM59.9811 31.6296C58.9345 30.5835 57.8998 29.5488 56.8537 28.5022L56.2121 29.1439L59.3394 32.2713L59.9811 31.6296ZM46.9048 44.7233C45.8467 43.6658 44.812 42.6306 43.7774 41.5959L43.1297 42.2435L46.2571 45.3709L46.9048 44.7233ZM36.5858 48.7584L39.719 51.8917L40.3607 51.2501C40.1873 51.0769 40.0254 50.9146 39.8578 50.7474C39.0311 49.9206 38.2102 49.0998 37.3835 48.2731C37.3142 48.2036 37.2506 48.0879 37.1407 48.1976C36.9615 48.3827 36.7766 48.5619 36.5858 48.7529V48.7584ZM66.5307 25.086C66.2533 24.8086 65.9932 24.548 65.7332 24.288C65.0047 23.5595 64.2762 22.8315 63.5477 22.109C63.4956 22.0569 63.3685 21.9988 63.3457 22.0161C63.1432 22.1953 62.9522 22.3978 62.7556 22.5943C63.8137 23.6523 64.8484 24.687 65.889 25.7277L66.5307 25.086ZM63.9179 27.7047C63.4321 27.2189 62.9695 26.7509 62.5016 26.2939C62.4728 26.2651 62.386 26.2596 62.3626 26.2824C62.1601 26.4676 61.9696 26.6641 61.7731 26.8666L63.2703 28.3638L63.9233 27.7102L63.9179 27.7047ZM48.0203 40.6074C47.8238 40.8039 47.6333 40.9836 47.4596 41.1801C47.4308 41.2089 47.4596 41.3359 47.5057 41.382C47.7315 41.6252 47.9742 41.8559 48.2055 42.0932C48.4248 42.313 48.6386 42.5269 48.8645 42.7522L49.5116 42.1046L48.0203 40.6133V40.6074ZM37.5685 51.0823L36.9153 51.7359L38.3952 53.2158L39.0484 52.5622L37.5685 51.0823ZM42.7769 45.8508C42.5923 46.0359 42.43 46.2091 42.2568 46.3655C42.1472 46.4637 42.17 46.5332 42.2802 46.6369C42.563 46.9089 42.8409 47.1922 43.1183 47.4696C43.2861 47.6368 43.4592 47.8105 43.6324 47.9837L44.2741 47.3421C43.7774 46.8453 43.2915 46.3595 42.7769 45.8448V45.8508ZM57.1832 31.4504C56.9867 31.647 56.8016 31.8321 56.6165 32.0172C56.5296 32.1041 56.5991 32.1616 56.6686 32.2311C56.9921 32.5546 57.3217 32.8841 57.6457 33.2082C57.7728 33.3353 57.8998 33.4623 58.0268 33.5893L58.6745 32.9422L57.1886 31.4564L57.1832 31.4504ZM44.1123 44.5501L43.4652 45.1978L44.945 46.6776L45.5921 46.03L44.1123 44.5501ZM56.0557 35.5664L54.5759 34.0866L53.9342 34.7282L55.414 36.2081L56.0557 35.5664ZM47.5638 44.0469L48.2055 43.4053L46.731 41.9314L46.0894 42.5731L47.5638 44.0469ZM65.2072 26.4155L63.7328 24.9416L63.1025 25.5713L64.5769 27.0457L65.2072 26.4155ZM61.2872 30.3349L59.8134 28.861L59.1777 29.4967L60.6515 30.9706L61.2872 30.3349ZM57.3678 34.2483C56.8939 33.7744 56.4433 33.3179 55.9808 32.8727C55.9401 32.832 55.8244 32.8146 55.7957 32.838C55.5992 33.0117 55.42 33.2023 55.2289 33.3988L56.7261 34.896L57.3678 34.2543V34.2483ZM50.0088 38.6476L51.4886 40.1275L52.1249 39.4918L50.645 38.012L50.0088 38.6476ZM41.6556 49.9668L40.1757 48.4869L39.5456 49.1172C40.0485 49.6199 40.5341 50.1057 41.0255 50.597L41.6556 49.9668ZM35.1521 56.4702L33.6722 54.9904L33.0421 55.6206L34.522 57.1004L35.1521 56.4702ZM54.7436 36.873L53.2638 35.3932L52.6276 36.0289C53.1248 36.5262 53.6107 37.012 54.1074 37.5087L54.7436 36.873ZM48.7081 39.9483L50.1825 41.4227L50.8128 40.7925L49.3384 39.3186L48.7081 39.9483ZM42.9734 48.6427L41.4937 47.1629L40.8521 47.8046L42.3317 49.2844L42.9734 48.6427ZM36.262 52.4004L35.6261 53.0366L37.1003 54.5105L37.7362 53.8748L36.262 52.4004ZM36.4297 55.1869L34.9498 53.707L34.3139 54.3427L35.7938 55.8226L36.4297 55.1869ZM62.6113 29.0168L61.1255 27.531L60.4838 28.1727L61.9696 29.6585L62.6113 29.0168Z" fill="white"/>
<path d="M132.501 18.4501H137.749L144.777 35.6054H145.055L152.084 18.4501H157.332V42.1252H153.216V25.8601H152.997L146.454 42.0557H143.379L136.836 25.8253H136.616V42.1252H132.501V18.4501Z" fill="white"/>
<path d="M162.002 42.1252V18.4501H177.4V22.0454H166.291V28.4728H176.602V32.0676H166.291V38.5298H177.493V42.1252H162.002Z" fill="white"/>
<path d="M181.775 42.1252V18.4501H190.654C192.472 18.4501 193.998 18.766 195.231 19.3979C196.472 20.0298 197.408 20.9163 198.04 22.0568C198.68 23.1898 199 24.5116 199 26.0218C199 27.5402 198.676 28.8577 198.029 29.9755C197.389 31.0851 196.445 31.9444 195.197 32.5535C193.948 33.1544 192.415 33.4552 190.595 33.4552H184.272V29.8946H190.018C191.081 29.8946 191.952 29.748 192.63 29.4554C193.308 29.1547 193.809 28.7193 194.133 28.1488C194.464 27.5712 194.63 26.8622 194.63 26.0218C194.63 25.182 194.464 24.4649 194.133 23.8716C193.802 23.2706 193.297 22.8157 192.619 22.5079C191.941 22.1914 191.066 22.0335 189.995 22.0335H186.064V42.1252H181.775ZM194.006 31.3972L199.867 42.1252H195.081L189.324 31.3972H194.006Z" fill="white"/>
<path d="M205.988 42.1252H201.41L209.745 18.4501H215.039L223.386 42.1252H218.808L212.485 23.3054H212.299L205.988 42.1252ZM206.138 32.8423H218.623V36.2873H206.138V32.8423Z" fill="white"/>
<path d="M196.551 57H192.883V55.9102H194.078V50.4492H192.883V49.3535H195.291V55.9102H196.551V57Z" fill="white"/>
<path d="M185.383 55.4297C185.383 55.1094 185.469 54.8301 185.641 54.5918C185.812 54.3496 186.037 54.1484 186.314 53.9883C186.596 53.8281 186.916 53.709 187.275 53.6309C187.639 53.5488 188.008 53.5078 188.383 53.5078C188.59 53.5078 188.768 53.5117 188.916 53.5195C189.064 53.5273 189.215 53.5391 189.367 53.5547V53.3379C189.367 53.0527 189.256 52.8398 189.033 52.6992C188.814 52.5586 188.525 52.4883 188.166 52.4883C187.838 52.4883 187.504 52.5352 187.164 52.6289C186.824 52.7188 186.502 52.8516 186.197 53.0273L185.705 52.0781C186.064 51.8711 186.449 51.709 186.859 51.5918C187.273 51.4707 187.709 51.4102 188.166 51.4102C188.463 51.4102 188.754 51.4434 189.039 51.5098C189.328 51.5762 189.586 51.6855 189.812 51.8379C190.043 51.9902 190.227 52.1895 190.363 52.4355C190.5 52.6777 190.568 52.9785 190.568 53.3379V57H189.367V56.1973C189.176 56.4941 188.893 56.7246 188.518 56.8887C188.146 57.0527 187.746 57.1348 187.316 57.1348C187.051 57.1348 186.799 57.0977 186.561 57.0234C186.326 56.9531 186.123 56.8457 185.951 56.7012C185.779 56.5566 185.641 56.3789 185.535 56.168C185.434 55.9531 185.383 55.707 185.383 55.4297ZM187.627 56.0508C187.865 56.0508 188.088 56.0215 188.295 55.9629C188.506 55.9004 188.691 55.8164 188.852 55.7109C189.012 55.6016 189.137 55.4707 189.227 55.3184C189.32 55.166 189.367 54.998 189.367 54.8145V54.6094C189.176 54.5781 188.996 54.5605 188.828 54.5566C188.66 54.5527 188.512 54.5508 188.383 54.5508C187.789 54.5508 187.34 54.6289 187.035 54.7852C186.734 54.9414 186.584 55.1348 186.584 55.3652C186.584 55.8223 186.932 56.0508 187.627 56.0508Z" fill="white"/>
<path d="M182.324 50.8301H180.848V49.3535H182.324V50.8301ZM183.438 57H179.77V55.9102H180.977V52.6348H179.77V51.5391H182.189V55.9102H183.438V57Z" fill="white"/>
<path d="M177.631 52.834C177.486 52.7637 177.338 52.7109 177.186 52.6758C177.037 52.6367 176.865 52.6172 176.67 52.6172C176.4 52.6172 176.146 52.6582 175.908 52.7402C175.674 52.8184 175.471 52.9375 175.299 53.0977C175.127 53.2578 174.992 53.459 174.895 53.7012C174.801 53.9395 174.754 54.2227 174.754 54.5508V55.9102H175.979V57H172.305V55.9102H173.541V52.6348H172.305V51.5391H174.754V52.9102C174.953 52.3633 175.246 51.9766 175.633 51.75C176.023 51.5234 176.486 51.4102 177.021 51.4102C177.189 51.4102 177.365 51.4277 177.549 51.4629C177.732 51.498 177.912 51.5605 178.088 51.6504L177.631 52.834Z" fill="white"/>
<path d="M171.273 55.2598C171.211 55.834 170.984 56.291 170.594 56.6309C170.207 56.9668 169.723 57.1348 169.141 57.1348C168.82 57.1348 168.527 57.082 168.262 56.9766C167.996 56.8711 167.77 56.7246 167.582 56.5371C167.395 56.3496 167.248 56.125 167.143 55.8633C167.041 55.5977 166.99 55.3086 166.99 54.9961V52.6348H165.754V51.5391H166.99V49.3535H168.203V51.5391H170.494V52.6348H168.203V54.9961C168.203 55.3477 168.289 55.6094 168.461 55.7812C168.633 55.9531 168.859 56.0391 169.141 56.0391C169.484 56.0391 169.74 55.9395 169.908 55.7402C170.076 55.541 170.176 55.3008 170.207 55.0195L171.273 55.2598Z" fill="white"/>
<path d="M164.518 55.3652C164.518 55.7207 164.438 56.0098 164.277 56.2324C164.117 56.4551 163.91 56.6348 163.656 56.7715C163.406 56.9082 163.125 57.002 162.812 57.0527C162.504 57.1074 162.201 57.1348 161.904 57.1348C161.408 57.1348 160.914 57.0625 160.422 56.918C159.93 56.7734 159.504 56.584 159.145 56.3496L159.648 55.3535C160.078 55.6035 160.471 55.7812 160.826 55.8867C161.186 55.9883 161.545 56.0391 161.904 56.0391C162.393 56.0391 162.748 55.9883 162.971 55.8867C163.193 55.7812 163.305 55.6367 163.305 55.4531C163.305 55.3633 163.273 55.2891 163.211 55.2305C163.148 55.1719 163.045 55.1191 162.9 55.0723C162.756 55.0215 162.564 54.9727 162.326 54.9258C162.092 54.875 161.799 54.8223 161.447 54.7676C161.166 54.7207 160.898 54.6641 160.645 54.5977C160.395 54.5273 160.174 54.4297 159.982 54.3047C159.791 54.1797 159.637 54.0215 159.52 53.8301C159.406 53.6387 159.35 53.3984 159.35 53.1094C159.35 52.8164 159.424 52.5625 159.572 52.3477C159.725 52.1289 159.922 51.9492 160.164 51.8086C160.41 51.668 160.686 51.5664 160.99 51.5039C161.295 51.4414 161.6 51.4102 161.904 51.4102C162.334 51.4102 162.75 51.4668 163.152 51.5801C163.559 51.6895 163.914 51.8477 164.219 52.0547L163.738 52.9922C163.434 52.8008 163.137 52.6719 162.848 52.6055C162.562 52.5352 162.248 52.5 161.904 52.5C161.76 52.5 161.609 52.5078 161.453 52.5234C161.297 52.5391 161.152 52.5703 161.02 52.6172C160.887 52.6602 160.775 52.7207 160.686 52.7988C160.6 52.873 160.557 52.9648 160.557 53.0742C160.557 53.2188 160.684 53.3379 160.938 53.4316C161.195 53.5215 161.633 53.6113 162.25 53.7012C162.586 53.748 162.893 53.8086 163.17 53.8828C163.447 53.9531 163.686 54.0508 163.885 54.1758C164.084 54.2969 164.238 54.4551 164.348 54.6504C164.461 54.8418 164.518 55.0801 164.518 55.3652Z" fill="white"/>
<path d="M152.939 51.5391H154.152V54.9141C154.152 55.3359 154.232 55.6289 154.393 55.793C154.553 55.957 154.785 56.0391 155.09 56.0391C155.535 56.0391 155.9 55.8574 156.186 55.4941C156.471 55.1309 156.613 54.6289 156.613 53.9883V51.5391H157.826V57H156.613V55.6348C156.492 56.1035 156.268 56.4707 155.939 56.7363C155.611 57.002 155.207 57.1348 154.727 57.1348C154.168 57.1348 153.73 56.9531 153.414 56.5898C153.098 56.2227 152.939 55.6641 152.939 54.9141V51.5391Z" fill="white"/>
<path d="M151.275 57H150.062V56.4961C149.828 56.7031 149.592 56.8613 149.354 56.9707C149.115 57.0801 148.844 57.1348 148.539 57.1348C148.188 57.1348 147.861 57.0645 147.561 56.9238C147.26 56.7832 147 56.5879 146.781 56.3379C146.566 56.084 146.396 55.7812 146.271 55.4297C146.15 55.0781 146.09 54.6934 146.09 54.2754C146.09 53.8613 146.15 53.4785 146.271 53.127C146.396 52.7715 146.566 52.4688 146.781 52.2188C147 51.9648 147.26 51.7676 147.561 51.627C147.861 51.4824 148.188 51.4102 148.539 51.4102C148.844 51.4102 149.115 51.4629 149.354 51.5684C149.592 51.6699 149.828 51.8242 150.062 52.0312V50.4492H149.008V49.3535H151.275V57ZM150.062 52.9922C149.918 52.832 149.73 52.7109 149.5 52.6289C149.273 52.543 149.057 52.5 148.85 52.5C148.393 52.5 148.02 52.6641 147.73 52.9922C147.445 53.3203 147.303 53.748 147.303 54.2754C147.303 54.8027 147.445 55.2285 147.73 55.5527C148.02 55.877 148.393 56.0391 148.85 56.0391C149.057 56.0391 149.273 55.998 149.5 55.916C149.73 55.8301 149.918 55.707 150.062 55.5469V52.9922Z" fill="white"/>
<path d="M144.725 57H143.512V53.6309C143.512 53.2051 143.432 52.9102 143.271 52.7461C143.111 52.582 142.879 52.5 142.574 52.5C142.125 52.5 141.758 52.6816 141.473 53.0449C141.191 53.4082 141.051 53.9102 141.051 54.5508V57H139.838V51.5391H141.051V52.9102C141.172 52.4375 141.396 52.0703 141.725 51.8086C142.053 51.543 142.457 51.4102 142.938 51.4102C143.496 51.4102 143.934 51.5918 144.25 51.9551C144.566 52.3184 144.725 52.877 144.725 53.6309V57Z" fill="white"/>
<path d="M137.582 57H133.914V55.9102H135.121V50.4492H133.914V49.3535H137.582V50.4492H136.334V55.9102H137.582V57Z" fill="white"/>
</svg>
